<?xml version="1.0" encoding="utf-8"?>
<svg xmlns="http://www.w3.org/2000/svg" xmlns:xlink="http://www.w3.org/1999/xlink" version="1.1" baseProfile="full" width="64" height="64" viewBox="0 0 64.00 64.00" enable-background="new 0 0 64.00 64.00" xml:space="preserve">
    <style>
    path {
        fill: #453C4F;
    }
    @media (prefers-color-scheme: dark) {
        path {
            fill: #FFFFFF;
        }
    }
    </style>
    <path fill-opacity="1" stroke-width="0" d="M 8,0L 56,0C 60.4183,0 64,3.58173 64,8L 64,56C 64,60.4183 60.4183,64 56,64L 8,64C 3.58172,64 0,60.4183 0,56L 0,8C 0,3.58173 3.58172,0 8,0 Z M 8,44.0001L 14,44.0001L 14,32.0001L 20,32.0001C 26.6274,32.0001 32,26.6275 32,20.0001C 32,13.3726 26.6274,8.00006 20,8.00006L 8,8.00003L 8,44.0001 Z M 20,26.0003L 14,26.0003L 14,14.0003L 20,14.0003C 23.3137,14.0003 26,16.6866 26,20.0003C 26,23.314 23.3137,26.0003 20,26.0003 Z M 44,44.0001L 45.9999,44.0003C 48.2091,44.0003 49.9999,42.2094 49.9999,40.0003L 50,44.0001C 50,49.5231 45.5228,54.0002 40,54.0002C 36.085,54.0002 32.6955,51.7505 31.0537,48.4732L 25.686,51.1571C 28.3128,56.4006 33.736,60.0002 40,60.0002C 48.8365,60.0002 56,52.8368 56,44.0001L 56,24.0001C 56,21.791 54.2092,20.0001 52,20.0001L 44,20.0001C 37.3726,20.0001 32,25.3727 32,32.0001C 32,38.6275 37.3726,44.0001 44,44.0001 Z M 50,26L 49.9999,38.0001L 44,38C 40.6863,38 38,35.3137 38,32C 38,28.6863 40.6863,26 44,26L 50,26 Z"/>
</svg>
